<svg width="14" height="14" viewBox="0 0 14 14" fill="" xmlns="http://www.w3.org/2000/svg">
  <path d="M0.944 0C0.4235 0 0 0.4235 0 0.944V13.056C0 13.5765 0.4235 14 0.944 14H13.056C13.5765 14 14 13.5765 14 13.056V0.944C14 0.4235 13.5765 0 13.056 0H0.944ZM4.2055 11.845H2.27775V5.22775H4.2055V11.845ZM3.241 4.323C2.701 4.323 2.2755 3.8975 2.2755 3.3575C2.2755 2.8175 2.701 2.392 3.241 2.392C3.781 2.392 4.2055 2.8175 4.2055 3.3575C4.2055 3.8975 3.781 4.323 3.241 4.323ZM11.844 11.845H9.91625V8.458C9.91625 8.1225 9.91625 7.69525 9.513 7.69525C9.107 7.69525 9.071 8.1225 9.071 8.458V11.845H7.14325V5.22775H8.98275V5.68025C9.30075 5.15475 9.82825 4.84525 10.43925 4.84525C11.9385 4.84525 11.845 5.9785 11.845 7.19875V11.845H11.844Z" fill="white"/>
</svg>
